<?xml version="1.0" encoding="UTF-8"?>
<svg xmlns="http://www.w3.org/2000/svg" xmlns:xlink="http://www.w3.org/1999/xlink" width="38px" height="19px" viewBox="0 0 37 19" version="1.1">
<g id="surface1">
<path style=" stroke:none;fill-rule:nonzero;fill:rgb(96.470588%,78.039216%,0%);fill-opacity:1;" d="M 37 1.632812 C 36.898438 0.796875 36.289062 0.128906 35.511719 0 L 1.503906 0 C 0.652344 0.140625 0 0.929688 0 1.875 L 0 17.101562 C 0 18.148438 0.796875 19 1.78125 19 L 35.234375 19 C 36.140625 19 36.886719 18.277344 37 17.34375 Z M 37 1.632812 "/>
<path style=" stroke:none;fill-rule:nonzero;fill:rgb(0%,0%,0%);fill-opacity:1;" d="M 4.464844 3.816406 L 7.398438 3.816406 L 7.398438 15.332031 L 4.464844 15.332031 Z M 4.464844 3.816406 "/>
<path style=" stroke:none;fill-rule:nonzero;fill:rgb(0%,0%,0%);fill-opacity:1;" d="M 12.949219 9.121094 C 12.695312 7.367188 12.554688 6.390625 12.527344 6.195312 C 12.40625 5.257812 12.289062 4.441406 12.175781 3.742188 L 8.367188 3.742188 L 8.367188 15.257812 L 10.941406 15.257812 L 10.949219 7.652344 L 12.03125 15.257812 L 13.863281 15.257812 L 14.890625 7.484375 L 14.898438 15.257812 L 17.460938 15.257812 L 17.460938 3.742188 L 13.628906 3.742188 Z M 12.949219 9.121094 "/>
<path style=" stroke:none;fill-rule:nonzero;fill:rgb(0%,0%,0%);fill-opacity:1;" d="M 22.308594 6.136719 C 22.34375 6.285156 22.359375 6.617188 22.359375 7.136719 L 22.359375 11.601562 C 22.359375 12.367188 22.308594 12.839844 22.210938 13.011719 C 22.113281 13.183594 21.855469 13.269531 21.433594 13.269531 L 21.433594 5.710938 C 21.753906 5.710938 21.972656 5.746094 22.085938 5.816406 C 22.203125 5.882812 22.277344 5.992188 22.308594 6.136719 Z M 23.636719 15.140625 C 23.984375 15.0625 24.277344 14.925781 24.515625 14.726562 C 24.753906 14.53125 24.921875 14.257812 25.015625 13.910156 C 25.113281 13.5625 25.167969 12.875 25.167969 11.839844 L 25.167969 7.796875 C 25.167969 6.707031 25.125 5.976562 25.0625 5.605469 C 24.996094 5.234375 24.832031 4.898438 24.574219 4.59375 C 24.3125 4.292969 23.929688 4.074219 23.429688 3.941406 C 22.929688 3.808594 22.113281 3.742188 20.691406 3.742188 L 18.5 3.742188 L 18.5 15.257812 L 22.058594 15.257812 C 22.875 15.230469 23.402344 15.191406 23.636719 15.140625 Z M 23.636719 15.140625 "/>
<path style=" stroke:none;fill-rule:nonzero;fill:rgb(0%,0%,0%);fill-opacity:1;" d="M 29.90625 13.417969 C 29.851562 13.566406 29.613281 13.640625 29.433594 13.640625 C 29.261719 13.640625 29.144531 13.570312 29.085938 13.425781 C 29.027344 13.285156 28.996094 12.960938 28.996094 12.457031 L 28.996094 9.414062 C 28.996094 8.886719 29.023438 8.5625 29.074219 8.429688 C 29.125 8.300781 29.238281 8.234375 29.414062 8.234375 C 29.59375 8.234375 29.832031 8.308594 29.894531 8.457031 C 29.957031 8.609375 29.988281 8.925781 29.988281 9.414062 L 29.988281 12.363281 C 29.96875 12.96875 29.941406 13.320312 29.90625 13.417969 Z M 26.167969 15.15625 L 28.8125 15.15625 C 28.921875 14.71875 28.980469 14.472656 28.992188 14.421875 C 29.234375 14.71875 29.496094 14.941406 29.785156 15.085938 C 30.074219 15.234375 30.503906 15.308594 30.835938 15.308594 C 31.300781 15.308594 31.699219 15.183594 32.039062 14.9375 C 32.375 14.6875 32.589844 14.394531 32.683594 14.054688 C 32.773438 13.71875 32.820312 13.203125 32.820312 12.511719 L 32.820312 9.28125 C 32.820312 8.585938 32.804688 8.132812 32.773438 7.921875 C 32.742188 7.707031 32.652344 7.492188 32.503906 7.269531 C 32.351562 7.046875 32.136719 6.875 31.847656 6.75 C 31.5625 6.628906 31.226562 6.566406 30.839844 6.566406 C 30.5 6.566406 30.066406 6.636719 29.78125 6.769531 C 29.492188 6.90625 29.230469 7.113281 28.996094 7.386719 L 28.996094 3.640625 L 26.167969 3.640625 Z M 26.167969 15.15625 "/>
</g>
</svg>
