
<svg width="63" height="38" viewBox="0 0 53 38" fill="none" xmlns="http://www.w3.org/2000/svg">
  <!-- Первое изображение -->
  <g transform="translate(5, 0)">
    <path d="M14.8063 19.5388H11.7044C10.3831 19.5388 9.31085 20.6111 9.31085 21.9323C9.31085 23.2535 10.3831 24.3258 11.7044 24.3258H15.6791C16.3481 24.3258 16.9323 24.7662 17.1652 25.3934C17.9151 27.412 19.0091 29.2641 20.3752 30.8776C21.0757 31.7042 20.4981 32.9712 19.4146 32.9712H16.2057C15.0601 32.9712 14.0723 33.852 14.0181 34.9977C13.9606 36.22 14.9356 37.23 16.1451 37.23H31.888C32.7241 37.3465 33.5762 37.4071 34.4443 37.4071C44.7013 37.4071 53.0035 29.0251 52.8711 18.7346C52.7418 8.78557 44.6199 0.67158 34.6709 0.550309C33.2762 0.532756 31.9167 0.67158 30.6083 0.949227C27.4808 1.61303 24.2878 1.9194 21.0917 1.9194H5.83388C4.54458 1.9194 3.43399 2.91031 3.37336 4.19961C3.30793 5.57508 4.40416 6.7112 5.76527 6.7112H15.5707C17.5956 6.7112 18.9168 8.8478 18.0009 10.6525C17.9897 10.6733 17.9801 10.694 17.969 10.7147C17.5094 11.6322 16.568 12.2099 15.5404 12.2099H2.99359C1.70428 12.2099 0.593693 13.2008 0.533057 14.4901C0.467635 15.8656 1.56386 17.0017 2.92497 17.0017H14.8047C15.5244 17.0017 16.0988 17.5985 16.0717 18.3181C16.0462 18.9995 15.4861 19.5372 14.8047 19.5372L14.8063 19.5388ZM29.2759 7.9287C29.4418 5.35169 31.5354 3.26136 34.1124 3.10019C37.2383 2.90552 39.8121 5.48093 39.6143 8.60686C39.4515 11.1855 37.3596 13.2774 34.7794 13.4401C31.6487 13.638 29.0716 11.0562 29.2743 7.9271L29.2759 7.9287ZM18.912 16.1815C18.7189 13.0556 21.2943 10.4834 24.4203 10.6812C27.0005 10.844 29.0924 12.9375 29.2536 15.5177C29.4498 18.6484 26.8664 21.2238 23.7373 21.0212C21.1603 20.8536 19.0716 18.7601 18.9104 16.1831L18.912 16.1815ZM32.9427 28.082C32.78 30.6606 30.6881 32.7526 28.1095 32.9153C24.9787 33.1132 22.3985 30.5314 22.6012 27.4023C22.7687 24.8237 24.8623 22.7349 27.4409 22.5738C30.5668 22.3791 33.139 24.9561 32.9427 28.082ZM34.7427 20.6749C33.5667 20.8712 32.5614 19.8707 32.7513 18.6947C32.8662 17.983 33.4374 17.407 34.1491 17.2873C35.3251 17.091 36.3335 18.0899 36.1437 19.2675C36.0288 19.9808 35.4559 20.5568 34.7427 20.6765V20.6749ZM46.2921 28.0788C46.131 30.6574 44.0406 32.751 41.462 32.9153C38.3313 33.1164 35.7511 30.5346 35.9522 27.4055C36.1165 24.8285 38.2069 22.7365 40.7839 22.5738C43.9082 22.3759 46.4868 24.9529 46.2921 28.0788ZM44.8098 21.0324C41.9471 21.0324 39.627 18.7122 39.627 15.8528C39.627 12.9934 42.1498 10.4738 45.18 10.6844C47.7362 10.8615 49.8058 12.9343 49.9797 15.4906C50.1856 18.5176 47.7905 21.0339 44.8114 21.0339L44.8098 21.0324Z" fill="#9534D2"/>
  </g>
  
  <!-- Второе изображение -->
  <g transform="translate(-4, 1)">
    <rect x="0.90332" y="0.977539" width="8.03604" height="4.64304" rx="2.27732" fill="#9534D2"/>
  </g>
  
  <!-- Третье изображение -->
  <g transform="translate(8, 33)">
   <rect x="0.58252" y="0.050293" width="6.42883" height="4.28589" rx="2.14294" fill="#9534D2"/>
  </g>
</svg>
