<svg width="21" height="17" viewBox="0 0 21 17" fill="none" xmlns="http://www.w3.org/2000/svg">
<path d="M10.5 13.6118C11.0523 13.6118 11.5 13.1641 11.5 12.6118C11.5 12.0595 11.0523 11.6118 10.5 11.6118C9.94771 11.6118 9.5 12.0595 9.5 12.6118C9.5 13.1641 9.94771 13.6118 10.5 13.6118Z" fill="#141C24"/>
<path d="M11.5 8.61182C11.5 9.16409 11.0523 9.61182 10.5 9.61182C9.94771 9.61182 9.5 9.16409 9.5 8.61182C9.5 8.05954 9.94771 7.61182 10.5 7.61182C11.0523 7.61182 11.5 8.05954 11.5 8.61182Z" fill="#141C24"/>
<path d="M10.5 5.61182C11.0523 5.61182 11.5 5.16409 11.5 4.61182C11.5 4.05954 11.0523 3.61182 10.5 3.61182C9.94771 3.61182 9.5 4.05954 9.5 4.61182C9.5 5.16409 9.94771 5.61182 10.5 5.61182Z" fill="#141C24"/>
<path fill-rule="evenodd" clip-rule="evenodd" d="M0.5 10.6118V14.6118C0.5 15.7164 1.39543 16.6118 2.5 16.6118H18.5C19.6046 16.6118 20.5 15.7164 20.5 14.6118V10.6118C19.3954 10.6118 18.5 9.71637 18.5 8.61182C18.5 7.50723 19.3954 6.61182 20.5 6.61182V2.61182C20.5 1.50723 19.6046 0.611816 18.5 0.611816H2.5C1.39543 0.611816 0.5 1.50726 0.5 2.61182V6.61182C1.60457 6.61182 2.5 7.50723 2.5 8.61182C2.5 9.7164 1.60457 10.6118 0.5 10.6118ZM19 14.6118C19 14.888 18.7761 15.1118 18.5 15.1118H2.5C2.22385 15.1118 2 14.888 2 14.6118V11.775C3.18246 11.2133 4 10.008 4 8.61182C4 7.21561 3.18248 6.01038 2 5.44864V2.61182C2 2.33566 2.22385 2.11182 2.5 2.11182H18.5C18.7761 2.11182 19 2.33566 19 2.61182V5.44864C17.8175 6.01038 17 7.21561 17 8.61182C17 10.008 17.8175 11.2133 19 11.775V14.6118Z" fill="#141C24"/>
</svg>
