<svg width="17" height="17" viewBox="0 0 17 17" fill="none" xmlns="http://www.w3.org/2000/svg">
<path fill-rule="evenodd" clip-rule="evenodd" d="M12.5 4.61182C12.5 6.82096 10.7091 8.61182 8.5 8.61182C6.29086 8.61182 4.5 6.82096 4.5 4.61182C4.5 2.40268 6.29086 0.611816 8.5 0.611816C10.7091 0.611816 12.5 2.40268 12.5 4.61182ZM11 4.61182C11 5.99253 9.88071 7.11182 8.5 7.11182C7.11929 7.11182 6 5.99253 6 4.61182C6 3.2311 7.11929 2.11182 8.5 2.11182C9.88071 2.11182 11 3.2311 11 4.61182Z" fill="#141C24"/>
<path fill-rule="evenodd" clip-rule="evenodd" d="M0.5 14.3838V16.6118H16.5V14.3838C16.5 12.7164 15.4657 11.224 13.9045 10.6385L13.7669 10.5869C10.3711 9.31347 6.62893 9.31347 3.23315 10.5869L3.09551 10.6385C1.53429 11.224 0.5 12.7164 0.5 14.3838ZM3.75984 11.9914C6.81603 10.8453 10.184 10.8453 13.2402 11.9914L13.3778 12.043C14.3536 12.4089 15 13.3417 15 14.3838V15.1118H2V14.3838C2 13.3417 2.64643 12.4089 3.62219 12.043L3.75984 11.9914Z" fill="#141C24"/>
</svg>
